<svg role="img" viewBox="0 0 24 24" xmlns="http://www.w3.org/2000/svg"><title>Google</title><path fill="#4285F4" d="M23.49 12.27c0-.79-.07-1.55-.2-2.27H12v4.51h6.45a5.52 5.52 0 0 1-2.39 3.62v3h3.87c2.27-2.09 3.56-5.17 3.56-8.86Z"/><path fill="#34A853" d="M12 24c3.24 0 5.95-1.07 7.93-2.88l-3.87-3a7.18 7.18 0 0 1-10.69-3.77h-4v3.09A12 12 0 0 0 12 24Z"/><path fill="#FBBC05" d="M5.37 14.35A7.22 7.22 0 0 1 5 12c0-.82.14-1.62.37-2.35V6.56h-4A12 12 0 0 0 0 12c0 1.94.46 3.78 1.37 5.44l4-3.09Z"/><path fill="#EA4335" d="M12 4.77c1.77 0 3.35.61 4.6 1.8l3.44-3.44A11.62 11.62 0 0 0 12 0 12 12 0 0 0 1.37 6.56l4 3.09A7.16 7.16 0 0 1 12 4.77Z"/></svg>
